<svg xmlns="http://www.w3.org/2000/svg" viewBox="0 0 514 104"><g fill="none" fill-rule="evenodd"><path fill="#FFFFFE" d="M492.97 1C504.032 1 513 10.397 513 21.987v60.026c0 11.59-8.968 20.987-20.03 20.987H21.03C9.969 103 1 93.603 1 82.013V21.987C1 10.397 9.969 1 21.03 1h471.94"/><path fill="#1A1919" d="M490.666 0H23.334C10.467 0 0 10.528 0 23.47v57.059C0 93.471 10.467 104 23.334 104h467.332C503.532 104 514 93.47 514 80.529V23.47C514 10.528 503.532 0 490.666 0zm0 3.52c10.954 0 19.834 8.933 19.834 19.95v57.059c0 11.018-8.88 19.95-19.834 19.95H23.334C12.379 100.48 3.5 91.547 3.5 80.53V23.47c0-11.017 8.88-19.95 19.834-19.95h467.332z"/><path fill="#1A1919" d="M47.43 28.115c2.283 0 4.595.403 6.941 1.206 2.344.802 4.384 2.007 6.117 3.612l-5.196 5.706c-.848-1.099-2.041-2.018-3.583-2.759-1.543-.739-3.094-1.109-4.658-1.109-.931 0-1.861.118-2.789.35a8.503 8.503 0 00-2.537 1.077 5.971 5.971 0 00-1.87 1.902c-.486.781-.727 1.722-.727 2.82 0 1.014.209 1.881.633 2.6.421.718 1.003 1.33 1.743 1.838.739.506 1.637.951 2.694 1.331 1.056.38 2.218.76 3.487 1.14 1.435.466 2.924.993 4.467 1.586a17.227 17.227 0 014.247 2.345c1.289.972 2.346 2.196 3.171 3.676.825 1.479 1.234 3.317 1.234 5.514 0 2.409-.443 4.512-1.331 6.307-.887 1.798-2.071 3.287-3.549 4.47-1.48 1.182-3.213 2.069-5.196 2.663-1.989.59-4.08.887-6.276.887-2.916 0-5.77-.54-8.559-1.616-2.789-1.08-5.069-2.674-6.844-4.788l5.705-5.323c1.096 1.52 2.566 2.725 4.406 3.612 1.837.889 3.644 1.333 5.42 1.333.926 0 1.878-.116 2.85-.351a7.578 7.578 0 002.631-1.172 6.524 6.524 0 001.901-2.06c.487-.824.73-1.848.73-3.074 0-1.183-.275-2.165-.825-2.947-.548-.782-1.288-1.459-2.218-2.03-.93-.569-2.029-1.066-3.295-1.489-1.27-.421-2.6-.866-3.993-1.331a39.095 39.095 0 01-4.058-1.521 13.374 13.374 0 01-3.645-2.346c-1.077-.97-1.955-2.164-2.631-3.581-.675-1.414-1.014-3.179-1.014-5.293 0-2.281.475-4.247 1.427-5.894a12.575 12.575 0 013.738-4.089c1.543-1.078 3.298-1.879 5.262-2.409a23.042 23.042 0 015.99-.793zm119.105 0c1.435 0 2.936.139 4.502.413a23.08 23.08 0 014.498 1.267 21.796 21.796 0 014.057 2.124 13.067 13.067 0 013.233 3.043l-6.083 4.818c-1.185-1.606-2.728-2.779-4.629-3.518-1.902-.739-3.761-1.111-5.578-1.111-2.326 0-4.437.424-6.338 1.269a14.867 14.867 0 00-4.914 3.486c-1.373 1.48-2.43 3.213-3.168 5.197-.74 1.987-1.111 4.143-1.111 6.466 0 2.451.36 4.691 1.078 6.719.72 2.029 1.743 3.771 3.074 5.23a13.801 13.801 0 004.786 3.391c1.859.803 3.951 1.205 6.276 1.205 2.407 0 4.541-.476 6.401-1.427 1.859-.951 3.359-2.208 4.501-3.771l6.403 4.499a20.48 20.48 0 01-7.29 5.802c-2.874 1.373-6.233 2.06-10.079 2.06-3.507 0-6.729-.582-9.667-1.744-2.937-1.161-5.463-2.789-7.573-4.88-2.114-2.092-3.761-4.586-4.946-7.481-1.183-2.893-1.774-6.095-1.774-9.603 0-3.591.622-6.834 1.871-9.729 1.246-2.895 2.955-5.356 5.134-7.385 2.176-2.029 4.742-3.592 7.7-4.691 2.959-1.098 6.172-1.649 9.636-1.649zm95.143 0c3.507 0 6.739.551 9.698 1.649 2.959 1.099 5.516 2.662 7.669 4.691 2.157 2.029 3.835 4.49 5.041 7.385 1.205 2.895 1.806 6.138 1.806 9.729 0 3.508-.601 6.71-1.806 9.603-1.206 2.895-2.884 5.389-5.041 7.481-2.153 2.091-4.71 3.719-7.669 4.88-2.959 1.162-6.191 1.744-9.698 1.744-3.467 0-6.666-.582-9.605-1.744-2.937-1.161-5.474-2.789-7.608-4.88-2.132-2.092-3.8-4.586-5.007-7.481-1.204-2.893-1.805-6.095-1.805-9.603 0-3.591.601-6.834 1.805-9.729 1.207-2.895 2.875-5.356 5.007-7.385 2.134-2.029 4.671-3.592 7.608-4.691 2.939-1.098 6.138-1.649 9.605-1.649zm96.986 0c3.506 0 6.739.551 9.697 1.649 2.959 1.099 5.515 2.662 7.669 4.691 2.156 2.029 3.835 4.49 5.041 7.385 1.204 2.895 1.805 6.138 1.805 9.729 0 3.508-.601 6.71-1.805 9.603-1.206 2.895-2.885 5.389-5.041 7.481-2.154 2.091-4.71 3.719-7.669 4.88-2.958 1.162-6.191 1.744-9.697 1.744-3.468 0-6.666-.582-9.606-1.744-2.935-1.161-5.473-2.789-7.606-4.88-2.134-2.092-3.801-4.586-5.007-7.481-1.204-2.893-1.806-6.095-1.806-9.603 0-3.591.602-6.834 1.806-9.729 1.206-2.895 2.873-5.356 5.007-7.385 2.133-2.029 4.671-3.592 7.606-4.691 2.94-1.098 6.138-1.649 9.606-1.649zm60.47 0c3.591 0 6.877.519 9.856 1.554 2.978 1.036 5.378 2.398 7.194 4.088l-5.513 5.959c-1.141-1.268-2.738-2.345-4.787-3.232-2.051-.889-4.278-1.333-6.688-1.333-2.365 0-4.51.424-6.432 1.269-1.924.845-3.562 2.008-4.913 3.486-1.353 1.48-2.399 3.213-3.137 5.197-.74 1.987-1.11 4.143-1.11 6.466 0 2.409.37 4.617 1.11 6.625.738 2.008 1.794 3.75 3.167 5.229 1.374 1.479 3.044 2.631 5.008 3.454 1.967.824 4.194 1.237 6.689 1.237 3.422 0 6.403-.529 8.937-1.586V55.12h-9.443v-6.593h17.178V71.79c-2.284 1.099-4.788 1.955-7.514 2.568-2.725.611-5.863.919-9.413.919-3.634 0-6.951-.582-9.952-1.744-3.001-1.161-5.579-2.789-7.731-4.88-2.156-2.092-3.835-4.586-5.041-7.481-1.204-2.893-1.806-6.095-1.806-9.603 0-3.591.622-6.834 1.871-9.729 1.246-2.895 2.956-5.356 5.134-7.385 2.176-2.029 4.742-3.592 7.701-4.691 2.958-1.098 6.17-1.649 9.635-1.649zm-329.36 1.142c2.577 0 4.899.233 6.971.698 2.071.465 3.845 1.225 5.324 2.282a10.642 10.642 0 013.425 4.056c.802 1.647 1.203 3.635 1.203 5.958 0 2.494-.466 4.586-1.396 6.276a11.31 11.31 0 01-3.769 4.089c-1.585 1.035-3.434 1.784-5.547 2.249-2.113.466-4.355.698-6.72.698h-6.148v18.572h-7.986V29.257h14.643zm38.345 0v44.878h-7.986V29.257h7.986zm96.414 0v6.972h-21.741V47.64h20.602v6.718h-20.602v12.678h22.882v7.099h-30.868V29.257h29.727zm83.417 0v37.779h19.079v7.099h-27.065V29.257h7.986zm145.033 0l11.283 18.89 11.41-18.89h9.255L468.07 54.676v19.459h-7.986V54.676l-16.861-25.419h9.76zm-191.242 5.894c-2.324 0-4.428.424-6.307 1.269a14.631 14.631 0 00-4.851 3.486c-1.353 1.48-2.399 3.213-3.136 5.197-.74 1.987-1.111 4.143-1.111 6.466 0 2.409.371 4.617 1.111 6.625.737 2.008 1.794 3.75 3.168 5.229a14.525 14.525 0 004.884 3.454c1.878.824 3.961 1.237 6.242 1.237 2.283 0 4.374-.413 6.276-1.237a14.493 14.493 0 004.913-3.454c1.371-1.479 2.428-3.221 3.168-5.229.74-2.008 1.11-4.216 1.11-6.625 0-2.323-.37-4.479-1.11-6.466-.74-1.984-1.786-3.717-3.137-5.197-1.353-1.478-2.98-2.641-4.882-3.486-1.902-.845-4.013-1.269-6.338-1.269zm96.984 0c-2.322 0-4.428.424-6.307 1.269a14.64 14.64 0 00-4.848 3.486c-1.354 1.48-2.4 3.213-3.137 5.197-.74 1.987-1.11 4.143-1.11 6.466 0 2.409.37 4.617 1.11 6.625.737 2.008 1.794 3.75 3.167 5.229a14.54 14.54 0 004.883 3.454c1.88.824 3.962 1.237 6.242 1.237 2.283 0 4.375-.413 6.276-1.237a14.491 14.491 0 004.915-3.454c1.37-1.479 2.426-3.221 3.167-5.229.741-2.008 1.111-4.216 1.111-6.625 0-2.323-.37-4.479-1.111-6.466-.741-1.984-1.786-3.717-3.136-5.197-1.354-1.478-2.982-2.641-4.883-3.486-1.902-.845-4.013-1.269-6.339-1.269zm-269.776.826h-5.832v12.867h5.578c1.31 0 2.557-.095 3.741-.286 1.181-.189 2.237-.527 3.167-1.014a5.775 5.775 0 002.219-1.997c.551-.844.825-1.943.825-3.296 0-1.308-.274-2.377-.825-3.2a5.703 5.703 0 00-2.185-1.934c-.91-.465-1.947-.77-3.108-.919a28.324 28.324 0 00-3.58-.221z"/></g></svg>